<svg aria-hidden="true" style="width:0;height:0;position:absolute;overflow:hidden" xmlns="http://www.w3.org/2000/svg"><defs><symbol id="icon-github" viewBox="0 0 32 32"><path d="M15.998 0C7.164 0 0 7.192 0 16.064v.017c0 7.039 4.528 13.021 10.831 15.191l.113.034c.8.148 1.092-.348 1.092-.774 0-.382-.014-1.392-.022-2.732-4.45.97-5.39-2.154-5.39-2.154-.726-1.856-1.776-2.35-1.776-2.35-1.454-.996.108-.976.108-.976 1.606.114 2.45 1.656 2.45 1.656 1.428 2.454 3.746 1.746 4.658 1.334.144-1.038.558-1.746 1.016-2.148-3.552-.406-7.288-1.784-7.288-7.938 0-1.754.624-3.188 1.648-4.312-.166-.406-.714-2.04.156-4.25 0 0 1.344-.432 4.4 1.646a14.931 14.931 0 0 1 4.005-.54h.001a15.33 15.33 0 0 1 4.114.568l-.108-.026c3.054-2.078 4.396-1.646 4.396-1.646.872 2.212.324 3.844.16 4.25 1.026 1.124 1.644 2.558 1.644 4.312 0 6.17-3.74 7.528-7.304 7.926.574.496 1.086 1.476 1.086 2.974 0 2.148-.02 3.88-.02 4.406 0 .43.288.93 1.1.772C27.478 29.096 32 23.117 32 16.082v-.02.001C32 7.191 24.836-.001 15.998-.001z"/></symbol></defs></svg>