<svg aria-hidden="true" style="width:0;height:0;position:absolute;overflow:hidden" xmlns="http://www.w3.org/2000/svg"><defs><symbol id="icon-github" viewBox="0 0 32 32"><path d="M15.998 0C7.164 0 0 7.192 0 16.064v.017c0 7.039 4.528 13.021 10.831 15.191l.113.034c.8.148 1.092-.348 1.092-.774 0-.382-.014-1.392-.022-2.732-4.45.97-5.39-2.154-5.39-2.154-.726-1.856-1.776-2.35-1.776-2.35-1.454-.996.108-.976.108-.976 1.606.114 2.45 1.656 2.45 1.656 1.428 2.454 3.746 1.746 4.658 1.334.144-1.038.558-1.746 1.016-2.148-3.552-.406-7.288-1.784-7.288-7.938 0-1.754.624-3.188 1.648-4.312-.166-.406-.714-2.04.156-4.25 0 0 1.344-.432 4.4 1.646a14.931 14.931 0 0 1 4.005-.54h.001a15.33 15.33 0 0 1 4.114.568l-.108-.026c3.054-2.078 4.396-1.646 4.396-1.646.872 2.212.324 3.844.16 4.25 1.026 1.124 1.644 2.558 1.644 4.312 0 6.17-3.74 7.528-7.304 7.926.574.496 1.086 1.476 1.086 2.974 0 2.148-.02 3.88-.02 4.406 0 .43.288.93 1.1.772C27.478 29.096 32 23.117 32 16.082v-.02.001C32 7.191 24.836-.001 15.998-.001z"/></symbol><symbol id="icon-linkedin2" viewBox="0 0 32 32"><path stroke-miterlimit="10" stroke-width=".889" d="M6.222 4.889h19.556c.736 0 1.333.597 1.333 1.333v19.556c0 .736-.597 1.333-1.333 1.333H6.222a1.333 1.333 0 0 1-1.333-1.333V6.222c0-.736.597-1.333 1.333-1.333z"/><path stroke-linejoin="round" stroke-linecap="round" stroke-width=".889" d="M8.889 13.333h2.667v9.333H8.889zM11.778 9.778a1.556 1.556 0 1 1-3.112 0 1.556 1.556 0 0 1 3.112 0zM18.889 15.556c-.982 0-1.778.519-1.778 2v5.111h-2.667v-9.333h2.667v.982h-.001a3.54 3.54 0 0 1 2.663-1.204h.004c1.964 0 3.556 1.467 3.556 4v5.556h-2.667v-5.111c0-1.481-.796-2-1.778-2"/></symbol><symbol id="icon-linkedin1" viewBox="0 0 32 32"><path d="M12 12h5.535v2.837h.079c.77-1.381 2.655-2.837 5.464-2.837C28.92 12 30 15.637 30 20.367V30h-5.769v-8.54c0-2.037-.042-4.657-3.001-4.657-3.005 0-3.463 2.218-3.463 4.509V30H12V12zM2 12h6v18H2V12zM8 7a3 3 0 1 1-6 0 3 3 0 0 1 6 0z"/></symbol><symbol id="icon-email" viewBox="0 0 32 32"><path d="M28.444 5.333H3.555c-.982 0-1.778.796-1.778 1.778v17.778c0 .982.796 1.778 1.778 1.778h24.889c.982 0 1.778-.796 1.778-1.778V7.111c0-.982-.796-1.778-1.778-1.778zm-1.368 19.556H5.032l6.222-6.436-1.28-1.236-6.418 6.64V8.461l11.049 10.996c.321.32.764.517 1.253.517s.932-.197 1.253-.517L28.444 8.186v15.556L21.902 17.2l-1.253 1.253zM4.72 7.111h22.284L15.857 18.195z"/></symbol><symbol id="icon-whatsapp" viewBox="0 0 32 32"><path d="M24.537 7.511A11.893 11.893 0 0 0 16.07 4C9.473 4 4.102 9.369 4.099 15.969c0 2.109.551 4.168 1.597 5.984l-1.697 6.201 6.345-1.665a11.972 11.972 0 0 0 5.72 1.457h.005c6.596 0 11.967-5.369 11.969-11.969 0-3.197-1.243-6.204-3.503-8.467zm-8.466 18.416h-.004a9.926 9.926 0 0 1-5.064-1.388l-.363-.216-3.765.988 1.004-3.671-.236-.376a9.932 9.932 0 0 1-1.521-5.295c.003-5.485 4.465-9.948 9.953-9.948a9.882 9.882 0 0 1 7.033 2.917 9.895 9.895 0 0 1 2.911 7.039c-.003 5.485-4.465 9.949-9.948 9.949zm5.457-7.452c-.3-.151-1.769-.873-2.044-.973-.273-.1-.472-.149-.672.149s-.773.972-.948 1.172-.349.224-.648.075-1.263-.465-2.405-1.484c-.889-.793-1.489-1.772-1.664-2.072s-.019-.461.132-.611c.135-.133.299-.349.448-.524s.199-.299.299-.499.051-.375-.025-.524c-.075-.151-.673-1.623-.923-2.221-.241-.58-.488-.503-.672-.511a12.825 12.825 0 0 0-.572-.011c-.2 0-.524.075-.799.373-.275.3-1.047 1.023-1.047 2.495s1.072 2.895 1.221 3.095 2.109 3.22 5.109 4.516c.715.308 1.272.492 1.705.631.716.228 1.368.195 1.884.119.575-.085 1.769-.723 2.019-1.421s.249-1.297.175-1.423-.276-.201-.573-.351z"/></symbol><symbol id="icon-phone" viewBox="0 0 20 32"><path d="M17 0H3C1.344 0 0 1.344 0 3v26c0 1.656 1.344 3 3 3h14c1.656 0 3-1.344 3-3V3c0-1.656-1.344-3-3-3zm-7 30c-1.106 0-2-.894-2-2s.894-2 2-2 2 .894 2 2-.894 2-2 2zm7-6.75c0 .413-.337.75-.75.75H3.75a.752.752 0 0 1-.75-.75V3.75c0-.413.337-.75.75-.75h12.5c.413 0 .75.337.75.75z"/></symbol><symbol id="icon-location" viewBox="0 0 32 32"><path d="M16 15a3 3 0 1 1 0-6 3 3 0 0 1 0 6zm0-8a5 5 0 1 0 0 10 5 5 0 0 0 0-10zm0 22c-1.663.009-10-12.819-10-17C6 6.478 10.477 2 16 2s10 4.478 10 10c0 4.125-8.363 17.009-10 17zm0-29C9.373 0 4 5.373 4 12c0 5.018 10.005 20.011 12 20 1.964.011 12-15.05 12-20 0-6.627-5.373-12-12-12z"/></symbol><symbol id="icon-linkedin" viewBox="0 0 32 32"><path d="M28.778 1.004H3.191a2.185 2.185 0 0 0-2.186 2.159v25.672a2.186 2.186 0 0 0 2.186 2.161h25.612c1.2 0 2.175-.963 2.194-2.159V3.165a2.195 2.195 0 0 0-2.195-2.161h-.029.001zM9.9 26.562H5.446V12.251H9.9zM7.674 10.293a2.579 2.579 0 1 1 2.579-2.58v.004a2.577 2.577 0 0 1-2.577 2.577h-.003zm18.882 16.269h-4.441v-6.959c0-1.66-.034-3.795-2.314-3.795-2.316 0-2.669 1.806-2.669 3.673v7.082h-4.441V12.252h4.266v1.951h.058a4.686 4.686 0 0 1 4.22-2.312h-.009c4.5 0 5.332 2.962 5.332 6.817v7.855z"/></symbol></defs></svg>