<svg aria-hidden="true" style="position: absolute; width: 0; height: 0; overflow: hidden;" version="1.1" xmlns="http://www.w3.org/2000/svg" xmlns:xlink="http://www.w3.org/1999/xlink">
<defs>
<symbol id="icon-github" viewBox="0 0 32 32">
<path d="M15.998 0c-8.834 0-15.998 7.192-15.998 16.064 0 0.005 0 0.011 0 0.017 0 7.039 4.528 13.021 10.831 15.191l0.113 0.034c0.8 0.148 1.092-0.348 1.092-0.774 0-0.382-0.014-1.392-0.022-2.732-4.45 0.97-5.39-2.154-5.39-2.154-0.726-1.856-1.776-2.35-1.776-2.35-1.454-0.996 0.108-0.976 0.108-0.976 1.606 0.114 2.45 1.656 2.45 1.656 1.428 2.454 3.746 1.746 4.658 1.334 0.144-1.038 0.558-1.746 1.016-2.148-3.552-0.406-7.288-1.784-7.288-7.938 0-1.754 0.624-3.188 1.648-4.312-0.166-0.406-0.714-2.040 0.156-4.25 0 0 1.344-0.432 4.4 1.646 1.201-0.341 2.58-0.538 4.005-0.54h0.001c1.426 0.003 2.806 0.201 4.114 0.568l-0.108-0.026c3.054-2.078 4.396-1.646 4.396-1.646 0.872 2.212 0.324 3.844 0.16 4.25 1.026 1.124 1.644 2.558 1.644 4.312 0 6.17-3.74 7.528-7.304 7.926 0.574 0.496 1.086 1.476 1.086 2.974 0 2.148-0.020 3.88-0.020 4.406 0 0.43 0.288 0.93 1.1 0.772 6.408-2.208 10.93-8.187 10.93-15.222 0-0.006 0-0.013 0-0.020v0.001c0-8.872-7.164-16.064-16.002-16.064z"></path>
</symbol>
<symbol id="icon-linkedin2" viewBox="0 0 32 32">
<path stroke-linejoin="miter" stroke-linecap="butt" stroke-miterlimit="10" stroke-width="0.8889" d="M6.222 4.889h19.556c0.736 0 1.333 0.597 1.333 1.333v19.556c0 0.736-0.597 1.333-1.333 1.333h-19.556c-0.736 0-1.333-0.597-1.333-1.333v-19.556c0-0.736 0.597-1.333 1.333-1.333z"></path>
<path stroke-linejoin="round" stroke-linecap="round" stroke-miterlimit="4" stroke-width="0.8889" d="M8.889 13.333h2.667v9.333h-2.667z"></path>
<path stroke-linejoin="round" stroke-linecap="round" stroke-miterlimit="4" stroke-width="0.8889" d="M11.778 9.778c0 0.859-0.696 1.556-1.556 1.556s-1.556-0.696-1.556-1.556c0-0.859 0.696-1.556 1.556-1.556s1.556 0.696 1.556 1.556z"></path>
<path stroke-linejoin="round" stroke-linecap="round" stroke-miterlimit="4" stroke-width="0.8889" d="M18.889 15.556c-0.982 0-1.778 0.519-1.778 2v5.111h-2.667v-9.333h2.667v0.982h-0.001c0.653-0.74 1.604-1.204 2.663-1.204 0.001 0 0.003 0 0.004 0h-0c1.964 0 3.556 1.467 3.556 4v5.556h-2.667v-5.111c0-1.481-0.796-2-1.778-2"></path>
</symbol>
<symbol id="icon-linkedin" viewBox="0 0 32 32">
<path d="M12 12h5.535v2.837h0.079c0.77-1.381 2.655-2.837 5.464-2.837 5.842 0 6.922 3.637 6.922 8.367v9.633h-5.769v-8.54c0-2.037-0.042-4.657-3.001-4.657-3.005 0-3.463 2.218-3.463 4.509v8.688h-5.767v-18z"></path>
<path d="M2 12h6v18h-6v-18z"></path>
<path d="M8 7c0 1.657-1.343 3-3 3s-3-1.343-3-3c0-1.657 1.343-3 3-3s3 1.343 3 3z"></path>
</symbol>
<symbol id="icon-email" viewBox="0 0 32 32">
<path d="M28.444 5.333h-24.889c-0.982 0-1.778 0.796-1.778 1.778v0 17.778c0 0.982 0.796 1.778 1.778 1.778v0h24.889c0.982 0 1.778-0.796 1.778-1.778v0-17.778c0-0.982-0.796-1.778-1.778-1.778v0zM27.076 24.889h-22.044l6.222-6.436-1.28-1.236-6.418 6.64v-15.396l11.049 10.996c0.321 0.32 0.764 0.517 1.253 0.517s0.932-0.197 1.253-0.517l-0 0 11.333-11.271v15.556l-6.542-6.542-1.253 1.253zM4.72 7.111h22.284l-11.147 11.084z"></path>
</symbol>
<symbol id="icon-whatsapp" viewBox="0 0 32 32">
<path d="M24.537 7.511c-2.26-2.263-5.265-3.509-8.467-3.511-6.597 0-11.968 5.369-11.971 11.969 0 2.109 0.551 4.168 1.597 5.984l-1.697 6.201 6.345-1.665c1.749 0.953 3.717 1.456 5.72 1.457h0.005c6.596 0 11.967-5.369 11.969-11.969 0-3.197-1.243-6.204-3.503-8.467zM16.071 25.927h-0.004c-1.785-0.001-3.536-0.48-5.064-1.388l-0.363-0.216-3.765 0.988 1.004-3.671-0.236-0.376c-0.996-1.584-1.521-3.415-1.521-5.295 0.003-5.485 4.465-9.948 9.953-9.948 2.657 0.001 5.155 1.037 7.033 2.917 1.877 1.881 2.912 4.38 2.911 7.039-0.003 5.485-4.465 9.949-9.948 9.949zM21.528 18.475c-0.3-0.151-1.769-0.873-2.044-0.973-0.273-0.1-0.472-0.149-0.672 0.149s-0.773 0.972-0.948 1.172-0.349 0.224-0.648 0.075-1.263-0.465-2.405-1.484c-0.889-0.793-1.489-1.772-1.664-2.072s-0.019-0.461 0.132-0.611c0.135-0.133 0.299-0.349 0.448-0.524s0.199-0.299 0.299-0.499 0.051-0.375-0.025-0.524c-0.075-0.151-0.673-1.623-0.923-2.221-0.241-0.58-0.488-0.503-0.672-0.511-0.173-0.008-0.373-0.011-0.572-0.011-0.2 0-0.524 0.075-0.799 0.373-0.275 0.3-1.047 1.023-1.047 2.495s1.072 2.895 1.221 3.095 2.109 3.22 5.109 4.516c0.715 0.308 1.272 0.492 1.705 0.631 0.716 0.228 1.368 0.195 1.884 0.119 0.575-0.085 1.769-0.723 2.019-1.421s0.249-1.297 0.175-1.423-0.276-0.201-0.573-0.351z"></path>
</symbol>
<symbol id="icon-phone" viewBox="0 0 20 32">
<path d="M17 0h-14c-1.656 0-3 1.344-3 3v26c0 1.656 1.344 3 3 3h14c1.656 0 3-1.344 3-3v-26c0-1.656-1.344-3-3-3zM10 30c-1.106 0-2-0.894-2-2s0.894-2 2-2 2 0.894 2 2-0.894 2-2 2zM17 23.25c0 0.413-0.337 0.75-0.75 0.75h-12.5c-0.413 0-0.75-0.337-0.75-0.75v-19.5c0-0.413 0.337-0.75 0.75-0.75h12.5c0.413 0 0.75 0.337 0.75 0.75z"></path>
</symbol>
</defs>
</svg>
