<svg aria-hidden="true" style="position: absolute; width: 0; height: 0; overflow: hidden;" version="1.1" xmlns="http://www.w3.org/2000/svg" xmlns:xlink="http://www.w3.org/1999/xlink">
<defs>
<symbol id="icon-github" viewBox="0 0 32 32">
<path d="M16 1.333c-0.044-0-0.096-0.001-0.148-0.001-7.963 0-14.429 6.41-14.519 14.352l-0 0.008c0.032 6.36 4.186 11.741 9.925 13.611l0.102 0.029c0.733 0.133 1-0.307 1-0.693s0-1.24 0-2.44c-4.080 0.867-4.947-1.92-4.947-1.92-0.283-0.892-0.858-1.623-1.611-2.097l-0.016-0.009c-1.333-0.88 0.107-0.867 0.107-0.867 0.957 0.131 1.763 0.686 2.232 1.466l0.008 0.014c0.556 0.952 1.573 1.581 2.737 1.581 0.561 0 1.088-0.146 1.545-0.403l-0.016 0.008c0.080-0.759 0.422-1.426 0.932-1.919l0.001-0.001c-3.253-0.36-6.667-1.587-6.667-7.093-0.001-0.033-0.001-0.073-0.001-0.112 0-1.457 0.563-2.783 1.484-3.771l-0.003 0.003c-0.19-0.51-0.3-1.098-0.3-1.713 0-0.752 0.165-1.465 0.459-2.105l-0.013 0.031s1.24-0.387 4 1.467c1.1-0.305 2.363-0.48 3.667-0.48s2.567 0.175 3.767 0.503l-0.1-0.023c2.8-1.853 4-1.467 4-1.467 0.282 0.609 0.447 1.323 0.447 2.074 0 0.614-0.11 1.203-0.311 1.748l0.011-0.035c0.965 0.995 1.56 2.353 1.56 3.851 0 0.001 0 0.002 0 0.002v-0c0 5.52-3.44 6.733-6.667 7.093 0.624 0.606 1.011 1.454 1.011 2.392 0 0.097-0.004 0.193-0.012 0.287l0.001-0.012v3.933s0.267 0.84 1 0.693c5.823-1.91 9.961-7.28 10-13.622l0-0.005c-0.090-7.95-6.556-14.361-14.519-14.361-0.052 0-0.104 0-0.155 0.001l0.008-0z"></path>
</symbol>
<symbol id="icon-linkedin" viewBox="0 0 32 32">
<path stroke-linejoin="miter" stroke-linecap="butt" stroke-miterlimit="10" stroke-width="0.8889" d="M6.222 4.889h19.556c0.736 0 1.333 0.597 1.333 1.333v19.556c0 0.736-0.597 1.333-1.333 1.333h-19.556c-0.736 0-1.333-0.597-1.333-1.333v-19.556c0-0.736 0.597-1.333 1.333-1.333z"></path>
<path stroke-linejoin="round" stroke-linecap="round" stroke-miterlimit="4" stroke-width="0.8889" d="M8.889 13.333h2.667v9.333h-2.667z"></path>
<path stroke-linejoin="round" stroke-linecap="round" stroke-miterlimit="4" stroke-width="0.8889" d="M11.778 9.778c0 0.859-0.696 1.556-1.556 1.556s-1.556-0.696-1.556-1.556c0-0.859 0.696-1.556 1.556-1.556s1.556 0.696 1.556 1.556z"></path>
<path stroke-linejoin="round" stroke-linecap="round" stroke-miterlimit="4" stroke-width="0.8889" d="M18.889 15.556c-0.982 0-1.778 0.519-1.778 2v5.111h-2.667v-9.333h2.667v0.982h-0.001c0.653-0.74 1.604-1.204 2.663-1.204 0.001 0 0.003 0 0.004 0h-0c1.964 0 3.556 1.467 3.556 4v5.556h-2.667v-5.111c0-1.481-0.796-2-1.778-2"></path>
</symbol>
<symbol id="icon-email-line" viewBox="0 0 32 32">
<path d="M28.444 5.333h-24.889c-0.982 0-1.778 0.796-1.778 1.778v0 17.778c0 0.982 0.796 1.778 1.778 1.778v0h24.889c0.982 0 1.778-0.796 1.778-1.778v0-17.778c0-0.982-0.796-1.778-1.778-1.778v0zM27.076 24.889h-22.044l6.222-6.436-1.28-1.236-6.418 6.64v-15.396l11.049 10.996c0.321 0.32 0.764 0.517 1.253 0.517s0.932-0.197 1.253-0.517l-0 0 11.333-11.271v15.556l-6.542-6.542-1.253 1.253zM4.72 7.111h22.284l-11.147 11.084z"></path>
</symbol>
<symbol id="icon-whatsapp" viewBox="0 0 32 32">
<path d="M24.537 7.511c-2.26-2.263-5.265-3.509-8.467-3.511-6.597 0-11.968 5.369-11.971 11.969 0 2.109 0.551 4.168 1.597 5.984l-1.697 6.201 6.345-1.665c1.749 0.953 3.717 1.456 5.72 1.457h0.005c6.596 0 11.967-5.369 11.969-11.969 0-3.197-1.243-6.204-3.503-8.467zM16.071 25.927h-0.004c-1.785-0.001-3.536-0.48-5.064-1.388l-0.363-0.216-3.765 0.988 1.004-3.671-0.236-0.376c-0.996-1.584-1.521-3.415-1.521-5.295 0.003-5.485 4.465-9.948 9.953-9.948 2.657 0.001 5.155 1.037 7.033 2.917 1.877 1.881 2.912 4.38 2.911 7.039-0.003 5.485-4.465 9.949-9.948 9.949zM21.528 18.475c-0.3-0.151-1.769-0.873-2.044-0.973-0.273-0.1-0.472-0.149-0.672 0.149s-0.773 0.972-0.948 1.172-0.349 0.224-0.648 0.075-1.263-0.465-2.405-1.484c-0.889-0.793-1.489-1.772-1.664-2.072s-0.019-0.461 0.132-0.611c0.135-0.133 0.299-0.349 0.448-0.524s0.199-0.299 0.299-0.499 0.051-0.375-0.025-0.524c-0.075-0.151-0.673-1.623-0.923-2.221-0.241-0.58-0.488-0.503-0.672-0.511-0.173-0.008-0.373-0.011-0.572-0.011-0.2 0-0.524 0.075-0.799 0.373-0.275 0.3-1.047 1.023-1.047 2.495s1.072 2.895 1.221 3.095 2.109 3.22 5.109 4.516c0.715 0.308 1.272 0.492 1.705 0.631 0.716 0.228 1.368 0.195 1.884 0.119 0.575-0.085 1.769-0.723 2.019-1.421s0.249-1.297 0.175-1.423-0.276-0.201-0.573-0.351z"></path>
</symbol>
<symbol id="icon-alternate-mobile" viewBox="0 0 20 32">
<path d="M17 0h-14c-1.656 0-3 1.344-3 3v26c0 1.656 1.344 3 3 3h14c1.656 0 3-1.344 3-3v-26c0-1.656-1.344-3-3-3zM10 30c-1.106 0-2-0.894-2-2s0.894-2 2-2 2 0.894 2 2-0.894 2-2 2zM17 23.25c0 0.413-0.337 0.75-0.75 0.75h-12.5c-0.413 0-0.75-0.337-0.75-0.75v-19.5c0-0.413 0.337-0.75 0.75-0.75h12.5c0.413 0 0.75 0.337 0.75 0.75z"></path>
</symbol>
</defs>
</svg>
